<svg xmlns="http://www.w3.org/2000/svg" viewBox="0 0 600 400">
  <defs>
    <linearGradient id="gothicBg" x1="0" y1="0" x2="1" y2="1">
      <stop offset="0%" stop-color="#12070e"/>
      <stop offset="100%" stop-color="#38143f"/>
    </linearGradient>
  </defs>
  <rect width="600" height="400" rx="32" fill="url(#gothicBg)"/>
  <path d="M78 380 Q180 100 300 330 Q420 90 522 380 Z" fill="rgba(255,255,255,0.05)"/>
  <path d="M68 310 c80 -120 180 -120 258 0" stroke="#d8b56d" stroke-width="12" fill="none" opacity="0.8"/>
  <rect x="130" y="40" width="340" height="260" rx="24" fill="#1f1228" opacity="0.95"/>
  <rect x="180" y="90" width="240" height="180" rx="18" fill="#2b162f"/>
  <path d="M180 120 c40 -45 80 -45 120 0 c40 -45 80 -45 120 0" stroke="#d8b56d" stroke-width="10" fill="none"/>
  <circle cx="220" cy="210" r="34" fill="#d9b97d"/>
  <circle cx="380" cy="210" r="28" fill="#d9b97d" opacity="0.95"/>
  <rect x="248" y="120" width="96" height="160" rx="20" fill="#35163c"/>
  <path d="M263 200 q28 -60 56 0" stroke="#f5dfab" stroke-width="12" fill="none"/>
  <text x="320" y="360" fill="#fff" font-family="Inter, sans-serif" font-size="40" font-weight="700">Betty, Boris & Boo</text>
</svg>
