<svg xmlns="http://www.w3.org/2000/svg" viewBox="0 0 600 400">
  <defs>
    <linearGradient id="jokerGrad" x1="0" y1="0" x2="1" y2="1">
      <stop offset="0%" stop-color="#6d1b90"/>
      <stop offset="100%" stop-color="#da3cff"/>
    </linearGradient>
  </defs>
  <rect width="600" height="400" rx="32" fill="url(#jokerGrad)"/>
  <circle cx="180" cy="220" r="100" fill="#000" opacity="0.15"/>
  <path d="M320 80 c-50 40 -65 140 -5 155 c55 14 85 -25 97 -72 c13 -47 -8 -100 -52 -112" fill="#fff"/>
  <path d="M316 84 c40-3 54 22 50 52 c-3 30 -21 44 -47 42 c-26 -3 -38 -24 -37 -49 c1 -25 18 -45 34 -45" fill="#1f0f4a"/>
  <path d="M273 196 c-18 35 -8 74 20 95 c26 19 60 19 84 0 c28 -24 34 -68 16 -104" fill="#ffdd57"/>
  <path d="M266 201 c-10 35 1 76 28 98 c26 20 60 19 84 0 c27 -25 34 -69 16 -104" fill="#d63cff" opacity="0.85"/>
  <text x="60" y="88" fill="#fff" font-family="Inter, sans-serif" font-size="70" font-weight="800">JOKER</text>
  <text x="58" y="150" fill="#ffd244" font-family="Inter, sans-serif" font-size="94" font-weight="900">Jackpot</text>
</svg>
